
        <svg xmlns="http://www.w3.org/2000/svg" width="148" height="148" viewBox="0 0 31391 31391" fill="currentColor" stroke="#ff4242" stroke-width="4.32" stroke-linecap="round" stroke-linejoin="round" class="feather feather ">
            <defs><style type="text/css">
   <![CDATA[
    .fil0 {fill:#E6C131}
   ]]>
  </style></defs><g id="Layer_x0020_1"><path class="fil0" d="M15696 0c8668,0 15695,7027 15695,15696 0,8668 -7027,15695 -15695,15695 -8669,0 -15696,-7027 -15696,-15695 0,-8669 7027,-15696 15696,-15696zm-2790 11759l1929 1929c264,-114 555,-177 861,-177 1206,0 2184,978 2184,2185 0,305 -63,596 -176,861l6023 6023 -1041 1040 -5985 -5985c-301,156 -643,245 -1005,245 -1207,0 -2185,-978 -2185,-2184 0,-363 89,-705 245,-1006l-1891 -1891 1041 -1040zm-5863 9247l5404 -4083c237,628 651,1169 1181,1563l-5404 4084 -1181 -1564zm7672 -8642l0 -5904 1962 0 0 5904c-312,-92 -641,-141 -981,-141 -341,0 -670,49 -981,141zm981 -9338c6997,0 12669,5673 12669,12670 0,6997 -5672,12669 -12669,12669 -6997,0 -12670,-5672 -12670,-12669 0,-6997 5673,-12670 12670,-12670z"/></g>
        </svg>